<svg width="16" height="16" viewBox="0 0 16 16" fill="none" xmlns="http://www.w3.org/2000/svg">
<path d="M11.2436 4.53228H12.6462L10.567 0.965043C10.3994 0.675986 10.0283 0.577443 9.73921 0.74825C9.45016 0.915772 9.35161 1.28695 9.52242 1.57601L11.2436 4.53228Z" fill="#6C7073"/>
<path d="M6.48415 1.57601C6.65167 1.28695 6.55641 0.915777 6.26736 0.748255C5.9783 0.580733 5.60712 0.675991 5.4396 0.965048L3.36035 4.53557H4.76294L6.48415 1.57601Z" fill="#6C7073"/>
<path d="M14.9686 5.6261H1.02813C0.459864 5.6261 0 6.08596 0 6.65422V7.79403C0 8.36229 0.459864 8.82216 1.02813 8.82216H1.35003L2.34202 14.1993C2.46684 14.8332 3.04496 15.3358 3.64607 15.3358H4.04024H6.62862C6.8914 15.3358 7.23301 15.3358 7.58119 15.3358H7.89653H8.21187C8.56005 15.3358 8.90166 15.3358 9.16444 15.3358H11.7528H12.147C12.7481 15.3358 13.3262 14.8332 13.451 14.1993L14.4496 8.81887H14.9719C15.5401 8.81887 16 8.35901 16 7.79075V6.65094C15.9967 6.08596 15.5369 5.6261 14.9686 5.6261ZM5.67604 10.9999V13.319C5.67604 13.6507 5.40669 13.9004 5.09464 13.9004C4.76288 13.9004 4.51324 13.631 4.51324 13.319V12.3467V10.0671C4.51324 9.73532 4.78259 9.48568 5.09464 9.48568C5.4264 9.48568 5.67604 9.75503 5.67604 10.0671V10.9999ZM7.54178 10.9999V13.319C7.54178 13.6507 7.27243 13.9004 6.96038 13.9004C6.62862 13.9004 6.37898 13.631 6.37898 13.319V12.3467V10.0671C6.37898 9.73532 6.64833 9.48568 6.96038 9.48568C7.27243 9.48568 7.54178 9.75503 7.54178 10.0671V10.9999ZM9.41737 12.3467V13.319C9.41737 13.631 9.16773 13.9004 8.83597 13.9004C8.52392 13.9004 8.25457 13.6507 8.25457 13.319V10.9999V10.0671C8.25457 9.75503 8.52392 9.48568 8.83597 9.48568C9.14802 9.48568 9.41737 9.73532 9.41737 10.0671V12.3467ZM11.2831 12.3467V13.319C11.2831 13.631 11.0335 13.9004 10.7017 13.9004C10.3897 13.9004 10.1203 13.6507 10.1203 13.319V10.9999V10.0671C10.1203 9.75503 10.3699 9.48568 10.7017 9.48568C11.0138 9.48568 11.2831 9.73532 11.2831 10.0671V12.3467Z" fill="#6C7073"/>
</svg>
