<svg width="38" height="31" viewBox="0 0 38 31" fill="none" xmlns="http://www.w3.org/2000/svg">
<path d="M0.42001 0.400011C0.551024 0.269237 0.707182 0.16637 0.879054 0.0976207C1.05093 0.0288718 1.23495 -0.00433306 1.42001 1.11243e-05H23.92C24.1051 -0.00433306 24.2891 0.0288718 24.461 0.0976207C24.6328 0.16637 24.789 0.269237 24.92 0.400011C25.0584 0.526209 25.1677 0.681034 25.2402 0.853725C25.3127 1.02642 25.3468 1.21283 25.34 1.40001V5.46001H28.86C29.3039 5.47019 29.7418 5.56523 30.15 5.74001C30.5606 5.89261 30.9376 6.12356 31.26 6.42001L35.61 10.64C35.8023 10.8295 35.9673 11.0449 36.1 11.28C36.2236 11.4864 36.3274 11.7041 36.41 11.93C36.4872 12.187 36.5342 12.4521 36.55 12.72C36.55 13.0533 36.5667 13.3 36.6 13.46C36.6333 13.62 36.6333 13.89 36.6 14.27C36.6 14.6567 36.6 14.9067 36.6 15.02V21.84C36.7858 21.837 36.9702 21.8717 37.1422 21.9422C37.3141 22.0127 37.4698 22.1174 37.6 22.25C37.7384 22.3762 37.8477 22.531 37.9202 22.7037C37.9927 22.8764 38.0268 23.0628 38.02 23.25C38.0224 23.4405 37.9919 23.6299 37.93 23.81C37.8729 23.968 37.768 24.1043 37.63 24.2L37.27 24.45C37.1082 24.5307 36.9307 24.5751 36.75 24.58H36.26H33.77C33.7796 25.3029 33.6377 26.0198 33.3535 26.6846C33.0694 27.3494 32.6492 27.9474 32.12 28.44C31.0475 29.4786 29.613 30.0593 28.12 30.0593C26.627 30.0593 25.1925 29.4786 24.12 28.44C23.5908 27.9474 23.1706 27.3494 22.8865 26.6846C22.6023 26.0198 22.4604 25.3029 22.47 24.58H14.07C14.0796 25.3029 13.9377 26.0198 13.6535 26.6846C13.3694 27.3494 12.9492 27.9474 12.42 28.44C11.8949 28.9617 11.2701 29.3723 10.5829 29.6472C9.89562 29.922 9.16003 30.0557 8.42001 30.04C7.67999 30.0557 6.9444 29.922 6.25715 29.6472C5.56991 29.3723 4.9451 28.9617 4.42001 28.44C3.89084 27.9474 3.47065 27.3494 3.18647 26.6846C2.9023 26.0198 2.76044 25.3029 2.77001 24.58H1.76001H1.27001C1.08927 24.5751 0.911793 24.5307 0.75001 24.45L0.39001 24.2C0.25199 24.1043 0.147151 23.968 0.0900102 23.81C0.0206902 23.611 -0.00986036 23.4005 1.02313e-05 23.19V1.36001C-0.00104051 1.17952 0.0357984 1.00081 0.108145 0.835445C0.180492 0.670081 0.286737 0.521739 0.42001 0.400011ZM26.16 26.47C26.4221 26.7337 26.7337 26.9429 27.0769 27.0857C27.4202 27.2284 27.7883 27.3019 28.16 27.3019C28.5318 27.3019 28.8998 27.2284 29.2431 27.0857C29.5863 26.9429 29.8979 26.7337 30.16 26.47C30.4241 26.2248 30.6348 25.9277 30.7789 25.5973C30.923 25.267 30.9973 24.9104 30.9973 24.55C30.9973 24.1896 30.923 23.8331 30.7789 23.5027C30.6348 23.1723 30.4241 22.8752 30.16 22.63C29.8979 22.3664 29.5863 22.1571 29.2431 22.0144C28.8998 21.8716 28.5318 21.7981 28.16 21.7981C27.7883 21.7981 27.4202 21.8716 27.0769 22.0144C26.7337 22.1571 26.4221 22.3664 26.16 22.63C25.8959 22.8752 25.6852 23.1723 25.5411 23.5027C25.3971 23.8331 25.3227 24.1896 25.3227 24.55C25.3227 24.9104 25.3971 25.267 25.5411 25.5973C25.6852 25.9277 25.8959 26.2248 26.16 26.47ZM25.32 13.64H33.76V13C33.7613 12.912 33.7442 12.8248 33.7098 12.7438C33.6753 12.6629 33.6243 12.59 33.56 12.53L29.29 8.38001C29.2265 8.31817 29.1514 8.26954 29.069 8.23693C28.9867 8.20431 28.8986 8.18837 28.81 8.19001H25.33L25.32 13.64ZM6.46001 26.47C6.72209 26.7337 7.03371 26.9429 7.37695 27.0857C7.72018 27.2284 8.08826 27.3019 8.46001 27.3019C8.83176 27.3019 9.19984 27.2284 9.54308 27.0857C9.88631 26.9429 10.1979 26.7337 10.46 26.47C10.7241 26.2248 10.9348 25.9277 11.0789 25.5973C11.223 25.267 11.2973 24.9104 11.2973 24.55C11.2973 24.1896 11.223 23.8331 11.0789 23.5027C10.9348 23.1723 10.7241 22.8752 10.46 22.63C10.1979 22.3664 9.88631 22.1571 9.54308 22.0144C9.19984 21.8716 8.83176 21.7981 8.46001 21.7981C8.08826 21.7981 7.72018 21.8716 7.37695 22.0144C7.03371 22.1571 6.72209 22.3664 6.46001 22.63C6.19589 22.8752 5.98521 23.1723 5.84114 23.5027C5.69707 23.8331 5.6227 24.1896 5.6227 24.55C5.6227 24.9104 5.69707 25.267 5.84114 25.5973C5.98521 25.9277 6.19589 26.2248 6.46001 26.47Z" fill="#00A3E2"/>
</svg>
