<svg width="60" height="48" viewBox="0 0 60 48" fill="none" xmlns="http://www.w3.org/2000/svg">
<path d="M27.6867 26.823C27.6867 26.823 27.2226 25.9417 27.2226 24.0192V19.8134C27.2226 18.5227 28.4693 17.4769 30.0075 17.4769C31.5457 17.4769 32.7924 18.5227 32.7924 19.8134V24.0192C32.7924 25.9417 32.3282 26.823 32.3282 26.823C32.3287 27.3562 32.2874 27.7055 32.2323 27.962L33.3622 28.6188C33.4992 28.5181 33.6683 28.4586 33.8512 28.4586C34.3076 28.4586 34.678 28.829 34.678 29.2853C34.678 29.7417 34.3076 30.1121 33.8512 30.1121C33.7272 30.1121 33.6095 30.0847 33.5039 30.0357H31.3999V31.5895C31.3999 31.7961 31.2338 31.9634 31.0286 31.9634H28.9863C28.7812 31.9634 28.615 31.7961 28.615 31.5895V30.0357H26.7432C26.6376 30.0847 26.5199 30.1121 26.3958 30.1121C25.9395 30.1121 25.5691 29.7417 25.5691 29.2853C25.5691 28.829 25.9395 28.4586 26.3958 28.4586C26.524 28.4586 26.6453 28.4878 26.7536 28.5399L27.7792 27.9437C27.7263 27.6889 27.6872 27.3437 27.6872 26.823H27.6867ZM32.0961 28.4233C32.0897 28.4413 32.0833 28.459 32.0771 28.4765H30.0079H27.9378C27.9297 28.4536 27.9213 28.4303 27.9129 28.4065L27.4214 28.6922H32.5586L32.0961 28.4233ZM30.8778 33.5049C31.9897 33.8728 32.7924 34.9265 32.7924 36.1691C32.7924 37.7178 31.5457 38.9729 30.0075 38.9729C28.7948 38.9729 27.7633 38.1928 27.381 37.1037H26.5611C26.413 37.1037 26.2943 37.0196 26.2943 36.9168V35.4214C26.2943 35.3186 26.413 35.2345 26.5611 35.2345H27.381C27.7134 34.2875 28.5368 33.574 29.5433 33.404V32.197H30.8778V33.5049ZM11.3747 18.1778H13.2081V26.9165C13.2081 27.123 13.042 27.2903 12.8368 27.2903H12.6159C12.4246 27.2903 12.265 27.1445 12.2464 26.9538L11.3747 18.1778ZM10.7973 12.3365H13.7679C13.9731 12.3365 14.1392 12.5038 14.1392 12.7104V17.5703C14.1392 17.7769 13.9731 17.9442 13.7679 17.9442H10.7973C10.5922 17.9442 10.426 17.7769 10.426 17.5703V12.7104C10.426 12.5038 10.5922 12.3365 10.7973 12.3365ZM12.3547 10C12.8672 10 13.283 10.4178 13.283 10.9346V11.8692H11.4264V10.9346C11.4264 10.4178 11.8423 10 12.3547 10ZM13.5151 12.2781V10.9346H20.3382C20.5433 10.9346 20.7095 11.1751 20.7095 11.472V11.7407C20.7095 12.0376 20.5433 12.2781 20.3382 12.2781H13.5151ZM4.37132 12.2781C4.16617 12.2781 4 12.0376 4 11.7407V11.472C4 11.1751 4.16617 10.9346 4.37132 10.9346H11.1944V12.2781H4.37132ZM26.9007 20.3793V22.5383L14.3686 15.7932V13.6342L26.9007 20.3793ZM26.9221 24.7094L14.3686 17.9512V16.8717L26.9007 23.6177V24.0196C26.9007 24.2664 26.9091 24.4953 26.9221 24.7094ZM47.6453 10C48.1577 10 48.5736 10.4178 48.5736 10.9346V11.8692H46.717V10.9346C46.717 10.4178 47.1328 10 47.6453 10ZM46.4849 12.2781H39.6618C39.4567 12.2781 39.2905 12.0376 39.2905 11.7407V11.472C39.2905 11.1751 39.4567 10.9346 39.6618 10.9346H46.4849V12.2781ZM55.6287 12.2781H48.8056V10.9346H55.6287C55.8338 10.9346 56 11.1751 56 11.472V11.7407C56 12.0376 55.8338 12.2781 55.6287 12.2781ZM48.5504 18.1778L47.6788 26.9538C47.6602 27.1445 47.4996 27.2903 47.3093 27.2903H47.0884C46.8832 27.2903 46.717 27.123 46.717 26.9165V18.1778H48.5504ZM46.1599 12.3365H49.1305C49.3356 12.3365 49.5018 12.5038 49.5018 12.7104V17.5703C49.5018 17.7769 49.3356 17.9442 49.1305 17.9442H46.1599C45.9547 17.9442 45.7886 17.7769 45.7886 17.5703V12.7104C45.7886 12.5038 45.9547 12.3365 46.1599 12.3365ZM33.0245 20.3793L45.5566 13.6342V15.7932L33.0245 22.5383V20.3793ZM33.0031 24.7094C33.0161 24.4953 33.0245 24.2664 33.0245 24.0196V23.6177L45.5566 16.8717V17.9512L33.0031 24.7094ZM30.0075 38.0383C31.0323 38.0383 31.8641 37.2009 31.8641 36.1691C31.8641 35.1373 31.0323 34.2999 30.0075 34.2999C28.9826 34.2999 28.1509 35.1373 28.1509 36.1691C28.1509 37.2009 28.9826 38.0383 30.0075 38.0383ZM30.0075 34.7672C30.777 34.7672 31.3999 35.3952 31.3999 36.1691C31.3999 36.943 30.777 37.571 30.0075 37.571C29.2379 37.571 28.615 36.943 28.615 36.1691C28.615 35.3952 29.2379 34.7672 30.0075 34.7672Z" fill="#3B3E40"/>
</svg>
