<svg width="70" height="56" viewBox="0 0 70 56" fill="none" xmlns="http://www.w3.org/2000/svg">
<path fill-rule="evenodd" clip-rule="evenodd" d="M30.3334 33.8333H38.5117V31.4999H30.3334V33.8333Z" fill="#333333"/>
<path fill-rule="evenodd" clip-rule="evenodd" d="M37.637 13.7665C37.637 14.0558 37.4013 14.2915 37.112 14.2915H32.912C32.6226 14.2915 32.387 14.0558 32.387 13.7665V10.7331C32.387 10.4438 32.6226 10.2081 32.912 10.2081H37.112C37.4013 10.2081 37.637 10.4438 37.637 10.7331V13.7665ZM38.0453 9.33313H31.9786C31.7208 9.33313 31.512 9.54196 31.512 9.80096V14.6998C31.512 14.9576 31.7208 15.1665 31.9786 15.1665H38.0453C38.3031 15.1665 38.512 14.9576 38.512 14.6998V9.80096C38.512 9.54196 38.3031 9.33313 38.0453 9.33313Z" fill="#333333"/>
<path fill-rule="evenodd" clip-rule="evenodd" d="M37.0536 38.5C36.4108 38.5 35.887 37.9774 35.887 37.3334C35.887 36.6894 36.4108 36.1667 37.0536 36.1667C37.6965 36.1667 38.2203 36.6894 38.2203 37.3334C38.2203 37.9774 37.6965 38.5 37.0536 38.5Z" fill="#333333"/>
<path fill-rule="evenodd" clip-rule="evenodd" d="M32.9703 38.5C32.3274 38.5 31.8036 37.9774 31.8036 37.3334C31.8036 36.6894 32.3274 36.1667 32.9703 36.1667C33.6131 36.1667 34.1369 36.6894 34.1369 37.3334C34.1369 37.9774 33.6131 38.5 32.9703 38.5Z" fill="#333333"/>
<path fill-rule="evenodd" clip-rule="evenodd" d="M31.5117 31.2083H38.5117V24.2083H31.5117V31.2083Z" fill="#333333"/>
<path fill-rule="evenodd" clip-rule="evenodd" d="M33.6117 17.7917H36.4117C36.9273 17.7917 37.345 18.2094 37.345 18.725V20.4167H32.6783V18.725C32.6783 18.2094 33.096 17.7917 33.6117 17.7917Z" fill="#333333"/>
<path fill-rule="evenodd" clip-rule="evenodd" d="M33.8451 17.4999H36.1784V15.4583H33.8451V17.4999Z" fill="#333333"/>
<path fill-rule="evenodd" clip-rule="evenodd" d="M35.0119 13.125C34.5278 13.125 34.1369 12.733 34.1369 12.25C34.1369 11.767 34.5278 11.375 35.0119 11.375C35.4949 11.375 35.8869 11.767 35.8869 12.25C35.8869 12.733 35.4949 13.125 35.0119 13.125ZM37.1119 10.5H32.9119C32.7824 10.5 32.6786 10.605 32.6786 10.7333V13.7667C32.6786 13.895 32.7824 14 32.9119 14H37.1119C37.2403 14 37.3453 13.895 37.3453 13.7667V10.7333C37.3453 10.605 37.2403 10.5 37.1119 10.5Z" fill="#333333"/>
<path fill-rule="evenodd" clip-rule="evenodd" d="M38.7888 9.91669H39.4305C39.56 9.91669 39.6638 10.0217 39.6638 10.15V14.35C39.6638 14.4784 39.56 14.5834 39.4305 14.5834H38.7888V9.91669Z" fill="#333333"/>
<path fill-rule="evenodd" clip-rule="evenodd" d="M30.5783 9.91669H31.22V14.5834H30.5783C30.45 14.5834 30.345 14.4784 30.345 14.35V10.15C30.345 10.0217 30.45 9.91669 30.5783 9.91669Z" fill="#333333"/>
<path fill-rule="evenodd" clip-rule="evenodd" d="M37.0536 38.7917C36.2486 38.7917 35.5953 38.1384 35.5953 37.3334C35.5953 36.5284 36.2486 35.875 37.0536 35.875C37.8586 35.875 38.512 36.5284 38.512 37.3334C38.512 38.1384 37.8586 38.7917 37.0536 38.7917ZM32.9703 38.7917C32.1653 38.7917 31.512 38.1384 31.512 37.3334C31.512 36.5284 32.1653 35.875 32.9703 35.875C33.7753 35.875 34.4286 36.5284 34.4286 37.3334C34.4286 38.1384 33.7753 38.7917 32.9703 38.7917ZM37.8003 20.7084H32.2003C31.169 20.7084 30.3336 21.5437 30.3336 22.575V31.2084H30.637H30.7735H31.2203V23.9167H38.8036V31.5V34.125H36.1786H30.7735H30.637H30.3336V45.3834C30.3336 46.4135 31.169 47.25 32.2003 47.25H37.8003C38.8305 47.25 39.667 46.4135 39.667 45.3834V22.575C39.667 21.5437 38.8305 20.7084 37.8003 20.7084Z" fill="#333333"/>
</svg>
