<svg width="60" height="48" viewBox="0 0 60 48" fill="none" xmlns="http://www.w3.org/2000/svg">
<path d="M23.8772 21.5045C23.2733 22.7864 22.5492 24.6202 22.2413 26.558C21.6881 30.0339 21.4723 33.837 21.4055 35.327C21.3884 35.6936 21.0844 35.9779 20.7162 35.9779H20.3728C19.9788 35.9779 19.6654 35.6567 19.6834 35.2662C19.7545 33.7342 19.972 29.9843 20.5158 26.558C20.8884 24.2167 21.5034 22.031 21.8897 20.7837L16.6678 19.2196C15.8697 18.9807 15.0408 18.8591 14.2075 18.8591H11.8671C11.4895 18.8591 11.182 18.5534 11.182 18.1749V17.9942H48.8615V18.1749C48.8615 18.5534 48.555 18.8591 48.1773 18.8591H45.8369C45.0037 18.8591 44.1747 18.9807 43.3766 19.2196L38.1037 20.799C38.4902 22.0488 39.1015 24.2263 39.4721 26.558C40.0167 29.9843 40.2342 33.7342 40.3053 35.2662C40.3233 35.6567 40.0099 35.9779 39.6159 35.9779H39.2725C38.9043 35.9779 38.6003 35.6936 38.5832 35.327C38.5164 33.837 38.2997 30.0339 37.7474 26.558C37.4412 24.6315 36.7239 22.8078 36.1221 21.527C35.7784 21.6999 35.446 21.8959 35.1265 22.1124H33.5894C33.5268 22.1124 33.4669 22.0919 33.4232 22.055L32.7673 21.5172C32.6816 21.4479 32.5694 21.4102 32.4496 21.4102H27.5949C27.4767 21.4102 27.3611 21.4487 27.2772 21.5181L26.6212 22.0559C26.5775 22.091 26.5176 22.1124 26.4551 22.1124H24.9171C24.5841 21.8864 24.2368 21.6829 23.8772 21.5045ZM45.9168 14.0874H40.6409C40.4516 14.0874 40.2984 13.867 40.2984 13.595V13.3488C40.2984 13.0767 40.4516 12.8564 40.6409 12.8564H46.0787V13.9516C46.1184 13.9356 46.1617 13.9268 46.2071 13.9268H48.0911C48.1365 13.9268 48.1799 13.9356 48.2196 13.9517V12.8564H53.6575C53.8467 12.8564 54 13.0767 54 13.3488V13.595C54 13.867 53.8467 14.0874 53.6575 14.0874H48.3814C48.4145 14.1401 48.4336 14.2025 48.4336 14.2693V16.3674C48.4336 16.5567 48.2803 16.7099 48.0911 16.7099H46.2071C46.0179 16.7099 45.8646 16.5567 45.8646 16.3674V14.2693C45.8646 14.2025 45.8837 14.1401 45.9168 14.0874ZM13.9213 13.9517V12.8564H19.3591C19.5483 12.8564 19.7016 13.0767 19.7016 13.3488V13.595C19.7016 13.867 19.5483 14.0874 19.3591 14.0874H14.083C14.1161 14.1401 14.1353 14.2025 14.1353 14.2693V16.3674C14.1353 16.5567 13.982 16.7099 13.7927 16.7099H11.9087C11.7195 16.7099 11.5662 16.5567 11.5662 16.3674V14.2693C11.5662 14.2025 11.5853 14.1401 11.6184 14.0874H6.34254C6.15329 14.0874 6 13.867 6 13.595V13.3488C6 13.0767 6.15329 12.8564 6.34254 12.8564H11.7804V13.9516C11.82 13.9356 11.8633 13.9268 11.9087 13.9268H13.7927C13.8382 13.9268 13.8816 13.9356 13.9213 13.9517ZM31.5208 25.511V26.4117C31.5208 26.6404 31.3675 26.8256 31.1782 26.8256H30.8787V28.2706H29.166V26.8256H28.8661C28.6768 26.8256 28.5235 26.6404 28.5235 26.4117V25.511C28.398 25.4496 28.3094 25.301 28.3094 25.1272V23.9889H31.7348V25.1272C31.7348 25.301 31.6463 25.4496 31.5208 25.511ZM32.5912 31.4285V31.8674C32.5912 32.2459 32.2846 32.5525 31.9061 32.5525H28.1382C27.7597 32.5525 27.4531 32.2459 27.4531 31.8674V28.9558C27.4531 28.5773 27.7597 28.2707 28.1382 28.2707H31.9061C32.2846 28.2707 32.5912 28.5773 32.5912 28.9558V29.2876H33.9364C34.0512 29.2876 34.1433 29.3647 34.1433 29.4589V31.2572C34.1433 31.3514 34.0512 31.4285 33.9364 31.4285H32.5912ZM26.0828 29.3411H27.453V31.482H26.0828C25.8936 31.482 25.7403 31.3287 25.7403 31.1395V29.6837C25.7403 29.4944 25.8936 29.3411 26.0828 29.3411ZM30.0221 31.9102C30.8494 31.9102 31.5208 31.2397 31.5208 30.4116C31.5208 29.5835 30.8494 28.913 30.0221 28.913C29.1949 28.913 28.5235 29.5835 28.5235 30.4116C28.5235 31.2397 29.1949 31.9102 30.0221 31.9102ZM30.0221 29.3411C30.613 29.3411 31.0926 29.8207 31.0926 30.4116C31.0926 31.0025 30.613 31.482 30.0221 31.482C29.4313 31.482 28.9517 31.0025 28.9517 30.4116C28.9517 29.8207 29.4313 29.3411 30.0221 29.3411ZM12.8508 12C13.3235 12 13.7072 12.3828 13.7072 12.8564V13.7127H11.9945V12.8564C11.9945 12.3828 12.3781 12 12.8508 12ZM47.1492 12C47.6219 12 48.0055 12.3828 48.0055 12.8564V13.7127H46.2928V12.8564C46.2928 12.3828 46.6765 12 47.1492 12ZM22.6721 22.2762C22.9101 22.2762 23.1028 22.0844 23.1028 21.8481C23.1028 21.6117 22.9101 21.4199 22.6721 21.4199C22.434 21.4199 22.2413 21.6117 22.2413 21.8481C22.2413 22.0844 22.434 22.2762 22.6721 22.2762ZM37.3166 22.2762C37.5547 22.2762 37.7474 22.0844 37.7474 21.8481C37.7474 21.6117 37.5547 21.4199 37.3166 21.4199C37.0786 21.4199 36.8859 21.6117 36.8859 21.8481C36.8859 22.0844 37.0786 22.2762 37.3166 22.2762ZM26.7728 22.1792L27.4288 21.6414C27.4724 21.6054 27.5332 21.5858 27.5949 21.5858H32.4496C32.5121 21.5858 32.5712 21.6054 32.6157 21.6414L33.2717 22.1792C33.3564 22.2494 33.4695 22.288 33.5894 22.288H34.8696C34.8465 22.3042 34.8208 22.3188 34.7985 22.3368L33.0481 23.647C32.7518 23.8688 32.3913 23.9887 32.0205 23.9887H30.0218H28.0239C27.6531 23.9887 27.2926 23.8688 26.9963 23.647L25.2459 22.3368C25.2228 22.3188 25.198 22.3042 25.1748 22.288H26.4551C26.5741 22.288 26.6897 22.2486 26.7728 22.1792ZM11.1932 17.7801C11.2214 17.4376 11.4955 17.1593 11.8457 17.1516C12.1891 17.143 12.6567 17.1216 13.2296 17.0693C14.5201 16.952 19.3371 15.289 23.5469 14.9053C27.272 14.5654 30.0218 14.5851 30.0218 14.5851C30.0218 14.5851 32.7724 14.5654 36.4967 14.9053C40.7065 15.289 45.5235 16.952 46.8149 17.0693C47.3878 17.1216 47.8553 17.143 48.1987 17.1516C48.549 17.1593 48.823 17.4376 48.8513 17.7801H11.1932Z" fill="#3B3E40"/>
</svg>
