<svg width="60" height="48" viewBox="0 0 60 48" fill="none" xmlns="http://www.w3.org/2000/svg">
<path d="M26.3341 17.1064C26.334 17.1037 26.3339 17.1009 26.3339 17.0981V16.5487C26.3339 16.4514 26.4091 16.3716 26.5063 16.3652L47.9073 15.0803C47.9404 15.0319 47.996 15 48.0587 15H49.5263C49.6271 15 49.7087 15.0826 49.7087 15.1835V16.6053H47.8753H46.8181L46.4744 17.2932H26.5175C26.4157 17.2932 26.3341 17.2107 26.3341 17.1098V17.1064ZM41.6019 16.3759H47.8753V15.999L41.6019 16.3759ZM46.5006 17.8656V17.7517L46.9589 16.8344H50.6256L51.084 17.7517V20.3825C50.9813 20.3009 50.8585 20.244 50.7173 20.244H48.168V19.5562H46.5636L46.4572 19.5516L25.8495 17.7427C25.8009 17.7381 25.7523 17.7363 25.7037 17.7363C25.4406 17.7363 25.1776 17.7996 24.9438 17.9179L23.7897 18.4995C23.621 18.5848 23.4295 18.6307 23.2379 18.6307H20.2834C19.9553 18.6307 19.6876 18.8994 19.6876 19.2297V21.2651C19.6876 21.5954 19.9553 21.8641 20.2834 21.8641H23.2379C23.4295 21.8641 23.621 21.91 23.7897 21.9962L25.0052 22.609C25.2399 22.7264 25.5021 22.7888 25.7633 22.7888H48.9313L48.2512 31.0857L46.5003 31.1444V32.5203C46.5003 32.7222 46.3362 32.8873 46.1346 32.8873H42.4899C42.2615 32.8873 42.053 32.7816 41.9171 32.6116V32.7038C41.9171 32.8047 41.8355 32.8873 41.7347 32.8873H22.9481C22.9461 32.8873 22.9442 32.8874 22.9422 32.8874H21.4756C21.3738 32.8874 21.2922 32.8048 21.2922 32.7039V31.6976H23.1256V31.97H41.688L41.5228 31.3104L39.4621 31.3783L39.2678 31.7673C39.2063 31.8911 39.0789 31.97 38.9405 31.97H36.6433C36.5049 31.97 36.3784 31.8911 36.3161 31.7673L36.1767 31.4893L24.1839 31.6975L24.7293 30.605V27.0202L27.4087 27.9779C27.5792 28.0394 27.758 28.0724 27.9386 28.077L46.5966 28.5292H46.6057C47.7415 28.4696 48.6178 27.4972 48.5583 26.3616C48.5033 25.2673 47.5985 24.4115 46.4957 24.4115L27.7965 24.8573C27.714 24.8573 27.6324 24.8545 27.5508 24.849L24.5001 24.6316H22.3505L22.0059 23.9409C21.9344 23.8015 21.7932 23.7143 21.6364 23.7143H20.4888C20.332 23.7143 20.1909 23.8015 20.1194 23.9427L19.9168 24.3482V23.9253C19.9168 23.5455 19.628 23.23 19.2503 23.1951L9.83335 22.3384L8 18.2105C8 18.2105 19.0148 17.2932 30.0002 17.2932C36.4261 17.2932 42.53 17.6054 46.5006 17.8656ZM19.9172 29.2181H18.2214C18.0188 29.2181 17.8547 29.053 17.8547 28.8512V28.3008H15.0325C15.3588 27.9357 15.5632 27.4587 15.5632 26.9322C15.5632 26.3983 15.3542 25.9149 15.0205 25.5489H17.8547V24.9985C17.8547 24.7958 18.0188 24.6316 18.2214 24.6316H19.7761L19.6881 24.8068V26.8845L19.9172 26.8839V26.8818H20.6849L21.7506 26.879V26.8818H24.5006V30.551L24.0423 31.4683H20.3756L19.9172 30.551V29.2181ZM46.5003 24.6406C47.4692 24.6406 48.2796 25.3937 48.33 26.3734C48.3823 27.3842 47.6049 28.2474 46.5947 28.2997L27.9441 27.8475C27.7882 27.8438 27.6333 27.8154 27.4867 27.7622L24.5001 26.6953H19.9168V24.8607L20.3247 24.0453C20.3559 23.9829 20.4191 23.9435 20.4888 23.9435H21.6364C21.7061 23.9435 21.7694 23.9829 21.8005 24.0453L22.2085 24.8607H24.5001L27.5343 25.0781C27.6507 25.0855 27.7672 25.0882 27.8836 25.0855L46.5003 24.6406ZM30.9607 18.422L31.3741 22.5599H25.764C25.5358 22.5599 25.3112 22.5058 25.1077 22.404L23.8931 21.7912C23.6896 21.6885 23.465 21.6353 23.2377 21.6353H20.2869C20.0834 21.6353 19.9175 21.4683 19.9175 21.2656V19.2274C19.9175 19.0246 20.0807 18.8604 20.2842 18.8604H23.2368C23.465 18.8604 23.6896 18.8072 23.8931 18.7045L25.0463 18.1229C25.2892 18 25.5596 17.9477 25.83 17.9716L30.9607 18.422ZM51.5948 21.4425C51.8432 21.5673 52 21.8205 52 22.0993V23.944C52 24.221 51.8432 24.476 51.5948 24.5999L51.0109 24.8925C50.8972 24.9494 50.8202 25.0622 50.8102 25.1897L50.196 32.5501C50.1795 32.7409 50.0209 32.8876 49.8302 32.8876H48.7321C48.5176 32.8876 48.3489 32.7033 48.3672 32.4904L49.1803 22.5598H32.2906L31.8863 18.5026L46.4367 19.7804C46.4798 19.7831 47.897 19.785 47.9391 19.785V20.473H50.7176C50.9202 20.473 51.0833 20.639 51.0833 20.8435V21.1875L51.5948 21.4425ZM13.5005 25.0974C14.5125 25.0974 15.3339 25.9193 15.3339 26.932C15.3339 27.9447 14.5125 28.7666 13.5005 28.7666C12.4876 28.7666 11.6672 27.9447 11.6672 26.932C11.6672 25.9193 12.4876 25.0974 13.5005 25.0974ZM14.7895 28.5301H17.1674V29.4015C17.1674 29.807 16.8383 30.1354 16.4331 30.1354H10.5673C10.1622 30.1354 9.83399 29.807 9.83399 29.4015V24.4481C9.83399 24.0427 10.1622 23.7143 10.5673 23.7143H16.4331C16.8383 23.7143 17.1674 24.0427 17.1674 24.4481V25.3196H14.7721C14.4201 25.0407 13.9829 24.8683 13.5007 24.8683C12.3631 24.8683 11.4382 25.7947 11.4382 26.9322C11.4382 28.0696 12.3631 28.9961 13.5007 28.9961C13.9902 28.9961 14.4348 28.8163 14.7895 28.5301Z" fill="#333333"/>
</svg>
