<svg width="60" height="48" viewBox="0 0 60 48" fill="none" xmlns="http://www.w3.org/2000/svg">
<path d="M30 24.3388C29.448 24.3388 29 24.8058 29 25.3812C29 25.9565 29.448 26.4235 30 26.4235C30.552 26.4235 31 25.9565 31 25.3812C31 24.8058 30.552 24.3388 30 24.3388ZM30 26.9447C29.171 26.9447 28.5 26.2442 28.5 25.3812C28.5 24.5171 29.171 23.8176 30 23.8176C30.828 23.8176 31.5 24.5171 31.5 25.3812C31.5 26.2442 30.828 26.9447 30 26.9447ZM33.85 23.5571H26.15C25.929 23.5571 25.75 23.7436 25.75 23.974V27.3637C25.75 27.5941 25.929 27.7807 26.15 27.7807H33.85C34.071 27.7807 34.25 27.5941 34.25 27.3637V23.974C34.25 23.7436 34.071 23.5571 33.85 23.5571ZM43.5 26.7154L36.86 26.0233C36.656 26.0024 36.5 25.8231 36.5 25.6084V24.072C36.5 23.777 36.786 23.5748 37.049 23.6842L43.5 26.3745V26.7154ZM34.5 27.4659V28.0527H25.5V27.4659V23.7759L25.766 23.4685C25.916 23.2944 26.119 23.1964 26.332 23.1964H33.668C33.881 23.1964 34.084 23.2944 34.234 23.4685L34.5 23.7759V27.4659ZM23.5 25.6084C23.5 25.8231 23.344 26.0024 23.14 26.0233L16.5 26.7154V26.3745L22.951 23.6842C23.214 23.5748 23.5 23.777 23.5 24.072V25.6084ZM48.35 24.3388H48V19.1271H45V24.3388H44.65C44.429 24.3388 44.25 24.5254 44.25 24.7558V25.0038L36.854 21.9195C36.825 21.8684 36.804 21.8111 36.766 21.7663L35.159 19.9046C35.052 19.7806 34.925 19.6962 34.778 19.6576C34.208 19.5075 32.555 19.1406 30 19.1406C27.445 19.1406 25.792 19.5075 25.222 19.6576C25.074 19.6962 24.948 19.7806 24.841 19.9046L23.234 21.7663C23.196 21.8111 23.175 21.8684 23.146 21.9195L15.75 25.0038V24.7558C15.75 24.5254 15.571 24.3388 15.35 24.3388H15V19.1271H12V24.3388H11.65C11.429 24.3388 11.25 24.5254 11.25 24.7558V29.1336C11.25 29.364 11.429 29.5506 11.65 29.5506H11.5L11.75 32.6776H14.5L15.25 29.5506H15.35C15.571 29.5506 15.75 29.364 15.75 29.1336V28.3644L23 27.6097V28.9491C23 29.3088 23.22 29.6267 23.547 29.7403L25.877 30.5502C25.958 30.5783 26.044 30.5929 26.13 30.5929H33.87C33.956 30.5929 34.042 30.5783 34.123 30.5502L36.453 29.7403C36.78 29.6267 37 29.3088 37 28.9491V27.6097L44.25 28.3644V29.1336C44.25 29.364 44.429 29.5506 44.65 29.5506H44.75L45.5 32.6776H48.146L48.396 29.5506H48.35C48.571 29.5506 48.75 29.364 48.75 29.1336V24.7558C48.75 24.5254 48.571 24.3388 48.35 24.3388ZM53.6 17.0424H47.5V18.0847H53.6C53.821 18.0847 54 17.8981 54 17.6678V17.4593C54 17.2289 53.821 17.0424 53.6 17.0424ZM12.5 17.0424H6.4C6.179 17.0424 6 17.2289 6 17.4593V17.6678C6 17.8981 6.179 18.0847 6.4 18.0847H12.5V17.0424ZM47.25 16.4169C47.25 16.1866 47.071 16 46.85 16H46.15C45.929 16 45.75 16.1866 45.75 16.4169V18.8665H47.25V16.4169ZM39.4 18.0847H45.5V17.0424H39.4C39.179 17.0424 39 17.2289 39 17.4593V17.6678C39 17.8981 39.179 18.0847 39.4 18.0847ZM21 17.6678V17.4593C21 17.2289 20.821 17.0424 20.6 17.0424H14.5V18.0847H20.6C20.821 18.0847 21 17.8981 21 17.6678ZM14.25 16.4169C14.25 16.1866 14.071 16 13.85 16H13.15C12.929 16 12.75 16.1866 12.75 16.4169V18.8665H14.25V16.4169Z" fill="#3B3E40"/>
</svg>
