<svg width="37" height="38" viewBox="0 0 37 38" fill="none" xmlns="http://www.w3.org/2000/svg">
<path d="M33.5791 15.3039C33.5791 6.8654 26.8149 0.000274658 18.5011 0.000274658C10.1873 0.000274658 3.42017 6.8654 3.42017 15.3039C3.42017 23.7425 10.1851 30.6076 18.5011 30.6076C26.8171 30.6076 33.5806 23.7425 33.5806 15.3039H33.5791ZM15.8093 21.8351L10.6612 16.6102L12.2217 15.0264L15.8093 18.6675L24.7754 9.56766L26.3359 11.1515L15.8093 21.8351Z" fill="#00A3E2"/>
<path d="M4.56458 25.6699L0 32.4274L6.74888 31.1501L8.00739 37.9997L12.2853 31.6726C9.20112 30.4586 6.52256 28.376 4.56458 25.6699Z" fill="#00A3E2"/>
<path d="M32.4346 25.6699C30.4774 28.3756 27.7999 30.4581 24.7168 31.6726L28.9918 37.9997L30.2503 31.1501L37.0021 32.4274L32.4346 25.6699Z" fill="#00A3E2"/>
</svg>
