<svg width="30" height="23" viewBox="0 0 30 23" fill="none" xmlns="http://www.w3.org/2000/svg">
<g clip-path="url(#clip0)">
<path d="M14.2982 20.9735C14.0634 20.9735 13.8383 21.0667 13.6723 21.2327C13.5063 21.3987 13.4131 21.6238 13.4131 21.8586C13.4131 22.0933 13.5063 22.3184 13.6723 22.4844C13.8383 22.6504 14.0634 22.7437 14.2982 22.7437H29.1147C29.3494 22.7437 29.5745 22.6504 29.7405 22.4844C29.9065 22.3184 29.9998 22.0933 29.9998 21.8586C29.9998 21.6238 29.9065 21.3987 29.7405 21.2327C29.5745 21.0667 29.3494 20.9735 29.1147 20.9735H14.2982Z" fill="#6C7073"/>
<path d="M20.8309 1.76735C20.9471 1.76758 21.0622 1.74488 21.1696 1.70057C21.277 1.65626 21.3746 1.59121 21.4569 1.50913C21.5391 1.42705 21.6043 1.32956 21.6489 1.22224C21.6934 1.11491 21.7163 0.999867 21.7163 0.883678C21.7163 0.76749 21.6934 0.652442 21.6489 0.54512C21.6043 0.437797 21.5391 0.340306 21.4569 0.258227C21.3746 0.176148 21.277 0.111092 21.1696 0.0667825C21.0622 0.022473 20.9471 -0.000220263 20.8309 1.61136e-06H14.297C14.063 0.0004486 13.8386 0.0937471 13.6733 0.25942C13.5079 0.425093 13.415 0.649605 13.415 0.883678C13.415 1.11775 13.5079 1.34226 13.6733 1.50794C13.8386 1.67361 14.063 1.76691 14.297 1.76735H20.8309Z" fill="#6C7073"/>
<path d="M14.2984 7.07506H22.9259C23.0422 7.07528 23.1575 7.05255 23.2651 7.00817C23.3727 6.96379 23.4704 6.89863 23.5528 6.81642C23.6352 6.73421 23.7005 6.63656 23.7451 6.52907C23.7897 6.42157 23.8126 6.30634 23.8126 6.18997C23.8126 6.07359 23.7897 5.95836 23.7451 5.85086C23.7005 5.74337 23.6352 5.64572 23.5528 5.56351C23.4704 5.4813 23.3727 5.41614 23.2651 5.37176C23.1575 5.32738 23.0422 5.30465 22.9259 5.30487H14.2984C14.064 5.30532 13.8393 5.39877 13.6737 5.56471C13.5081 5.73065 13.415 5.95552 13.415 6.18997C13.415 6.42442 13.5081 6.64929 13.6737 6.81523C13.8393 6.98117 14.064 7.07461 14.2984 7.07506Z" fill="#6C7073"/>
<path d="M25.0232 10.6126H14.2984C14.064 10.613 13.8393 10.7065 13.6737 10.8724C13.5081 11.0383 13.415 11.2632 13.415 11.4977C13.415 11.7321 13.5081 11.957 13.6737 12.1229C13.8393 12.2889 14.064 12.3823 14.2984 12.3827H25.0232C25.2576 12.3823 25.4823 12.2889 25.6479 12.1229C25.8136 11.957 25.9066 11.7321 25.9066 11.4977C25.9066 11.2632 25.8136 11.0383 25.6479 10.8724C25.4823 10.7065 25.2576 10.613 25.0232 10.6126Z" fill="#6C7073"/>
<path d="M13.4131 16.8054C13.4131 17.0401 13.5063 17.2652 13.6723 17.4312C13.8383 17.5972 14.0634 17.6905 14.2982 17.6905H27.1183C27.3527 17.69 27.5774 17.5966 27.743 17.4306C27.9087 17.2647 28.0017 17.0398 28.0017 16.8054C28.0017 16.5709 27.9087 16.3461 27.743 16.1801C27.5774 16.0142 27.3527 15.9207 27.1183 15.9203H14.2982C14.0634 15.9203 13.8383 16.0135 13.6723 16.1795C13.5063 16.3455 13.4131 16.5706 13.4131 16.8054Z" fill="#6C7073"/>
<path d="M1.50767 17.0355L4.19909 19.7269V0.884528C4.19909 0.64994 4.29228 0.42496 4.45816 0.259082C4.62404 0.093204 4.84902 1.90735e-05 5.08361 1.90735e-05C5.31819 1.90735e-05 5.54317 0.093204 5.70905 0.259082C5.87493 0.42496 5.96812 0.64994 5.96812 0.884528V19.7244L8.65768 17.0349C8.82362 16.8693 9.04851 16.7764 9.28293 16.7765C9.51735 16.7767 9.74212 16.8699 9.90786 17.0356C10.0736 17.2014 10.1667 17.4262 10.1668 17.6606C10.1669 17.8951 10.0739 18.1199 9.90833 18.2858L5.71855 22.4737C5.67332 22.5205 5.62305 22.5623 5.56866 22.5981C5.52095 22.6293 5.47038 22.656 5.41763 22.6776C5.40313 22.6835 5.38785 22.6863 5.37312 22.6914C5.33448 22.7059 5.29485 22.7177 5.25454 22.7265C5.21105 22.7342 5.16705 22.7387 5.1229 22.7398C5.10988 22.7404 5.09763 22.7437 5.08447 22.7437C5.02565 22.7436 4.96699 22.7378 4.90932 22.7262C4.88543 22.7214 4.86336 22.7123 4.84019 22.7057C4.8076 22.6976 4.7755 22.6877 4.74405 22.6759C4.71787 22.665 4.69427 22.6498 4.66945 22.6366C4.64291 22.6239 4.61703 22.6098 4.59192 22.5945C4.55392 22.5681 4.51805 22.5388 4.48461 22.5069C4.47598 22.4989 4.46605 22.4932 4.45767 22.4848L0.257961 18.2852C0.0926172 18.1194 -0.00016173 17.8948 2.11641e-07 17.6606C0.000162153 17.4265 0.0932517 17.2019 0.258824 17.0364C0.424397 16.8708 0.648915 16.7777 0.88307 16.7775C1.11723 16.7774 1.34187 16.8702 1.50767 17.0355Z" fill="#6C7073"/>
</g>
<defs>
<clipPath id="clip0">
<rect width="30" height="23" fill="white"/>
</clipPath>
</defs>
</svg>
