<svg width="38" height="30" viewBox="0 0 38 30" fill="none" xmlns="http://www.w3.org/2000/svg">
<path d="M36.13 10.38H25.39C25.1484 10.376 24.9083 10.4197 24.6835 10.5085C24.4588 10.5973 24.2537 10.7296 24.0801 10.8976C23.9064 11.0657 23.7676 11.2664 23.6715 11.4881C23.5754 11.7099 23.5239 11.9484 23.52 12.19V17.63C23.5239 17.8716 23.5754 18.1102 23.6715 18.3319C23.7676 18.5536 23.9064 18.7543 24.0801 18.9224C24.2537 19.0905 24.4588 19.2227 24.6835 19.3115C24.9083 19.4003 25.1484 19.444 25.39 19.44H36.13C36.6163 19.4481 37.086 19.2632 37.4365 18.9259C37.7869 18.5886 37.9895 18.1263 38 17.64V12.2C37.9974 11.9575 37.9469 11.7179 37.8514 11.495C37.7559 11.2721 37.6172 11.0703 37.4434 10.9012C37.2697 10.732 37.0641 10.5989 36.8387 10.5095C36.6133 10.42 36.3725 10.376 36.13 10.38ZM28.89 17.05C28.4764 17.0343 28.0766 16.8974 27.7403 16.6562C27.404 16.415 27.1461 16.0802 26.9986 15.6936C26.8511 15.3069 26.8205 14.8854 26.9108 14.4815C27.001 14.0776 27.208 13.7092 27.506 13.422C27.804 13.1349 28.1799 12.9417 28.5869 12.8666C28.9939 12.7915 29.4139 12.8377 29.7949 12.9994C30.1758 13.1612 30.5007 13.4314 30.7292 13.7765C30.9577 14.1215 31.0797 14.5262 31.08 14.94C31.0748 15.2224 31.014 15.5009 30.9011 15.7598C30.7882 16.0187 30.6255 16.2527 30.4221 16.4487C30.2187 16.6446 29.9788 16.7986 29.7159 16.9018C29.453 17.0049 29.1724 17.0553 28.89 17.05ZM21 7.91001H34.93V2.47001C34.93 2.1431 34.8652 1.81944 34.7392 1.5178C34.6132 1.21615 34.4285 0.942517 34.196 0.71276C33.9634 0.483003 33.6876 0.301694 33.3844 0.179343C33.0813 0.0569932 32.7569 -0.00396367 32.43 6.83876e-06H2.61C1.93848 -0.0109513 1.28936 0.241392 0.801555 0.703027C0.313755 1.16466 0.0260431 1.79891 0 2.47001L0 27.53C0.0260431 28.2011 0.313755 28.8354 0.801555 29.297C1.28936 29.7586 1.93848 30.011 2.61 30H32.43C32.7569 30.004 33.0813 29.943 33.3844 29.8207C33.6876 29.6983 33.9634 29.517 34.196 29.2873C34.4285 29.0575 34.6132 28.7839 34.7392 28.4822C34.8652 28.1806 34.93 27.8569 34.93 27.53V21.93H21.07L21 7.91001Z" fill="#00A3E2"/>
</svg>
